<?xml version="1.0" encoding="UTF-8" standalone="no"?>
<!-- Created with Inkscape (http://www.inkscape.org/) -->

<svg
   xmlns:dc="http://purl.org/dc/elements/1.1/"
   xmlns:cc="http://creativecommons.org/ns#"
   xmlns:rdf="http://www.w3.org/1999/02/22-rdf-syntax-ns#"
   xmlns:svg="http://www.w3.org/2000/svg"
   xmlns="http://www.w3.org/2000/svg"
   xmlns:sodipodi="http://sodipodi.sourceforge.net/DTD/sodipodi-0.dtd"
   xmlns:inkscape="http://www.inkscape.org/namespaces/inkscape"
   width="53.838875"
   height="61.365471"
   id="svg2"
   version="1.1"
   inkscape:version="0.48.4 r9939"
   sodipodi:docname="brenna.svg"
   inkscape:export-filename="/home/tryggvib/extra/brennur/brenna.png"
   inkscape:export-xdpi="87.997368"
   inkscape:export-ydpi="87.997368">
  <defs
     id="defs4" />
  <sodipodi:namedview
     id="base"
     pagecolor="#ffffff"
     bordercolor="#666666"
     borderopacity="1.0"
     inkscape:pageopacity="0.0"
     inkscape:pageshadow="2"
     inkscape:zoom="2.12"
     inkscape:cx="106.23127"
     inkscape:cy="108.78481"
     inkscape:document-units="px"
     inkscape:current-layer="layer1"
     showgrid="false"
     fit-margin-top="0"
     fit-margin-left="0"
     fit-margin-right="0"
     fit-margin-bottom="0"
     inkscape:window-width="1600"
     inkscape:window-height="876"
     inkscape:window-x="0"
     inkscape:window-y="24"
     inkscape:window-maximized="1" />
  <metadata
     id="metadata7">
    <rdf:RDF>
      <cc:Work
         rdf:about="">
        <dc:format>image/svg+xml</dc:format>
        <dc:type
           rdf:resource="http://purl.org/dc/dcmitype/StillImage" />
        <dc:title></dc:title>
      </cc:Work>
    </rdf:RDF>
  </metadata>
  <g
     inkscape:label="Layer 1"
     inkscape:groupmode="layer"
     id="layer1"
     transform="translate(-334.52219,-524.69963)">
    <g
       id="g3850"
       transform="matrix(0.30997554,0,0,0.30997554,229.99263,404.59379)"
       inkscape:export-filename="/home/tryggvib/extra/brennur/bonfire.png"
       inkscape:export-xdpi="87.997368"
       inkscape:export-ydpi="87.997368">
      <path
         sodipodi:nodetypes="cccccccccccccc"
         inkscape:connector-curvature="0"
         id="path2985"
         d="m 462.1716,529.26775 44.97153,35.45832 -46.70122,-13.83739 24.21545,29.40446 -50.16056,-31.13413 10.37804,25.94511 -29.40446,-24.21544 -25.94512,24.21544 10.37804,-25.94511 -41.51218,13.83739 25.94511,-25.94512 -44.97154,8.64838 43.24187,-16.43191 z"
         style="fill:#b98a45;fill-opacity:1;stroke:#564020;stroke-width:12.10772228;stroke-linecap:butt;stroke-linejoin:miter;stroke-miterlimit:4;stroke-opacity:1;stroke-dasharray:none" />
      <path
         sodipodi:nodetypes="csccccsccssssssc"
         inkscape:connector-curvature="0"
         id="path2987"
         d="m 391.04761,515.4661 c 0,0 -31.56727,-11.61675 -19.69797,-33.08249 11.86929,-21.46574 7.07106,-26.76904 7.07106,-26.76904 -2.01028,-5.52826 10.63093,13.83022 10.10153,21.71828 16.7744,-10.56706 -6.57543,-27.04648 14.64721,-52.78047 4.52687,17.37706 0.43003,15.05189 7.56563,24.08957 0,0 0.75845,-11.37035 7.42989,-27.56529 3.0911,-7.50366 5.60881,-19.73903 2.17708,-23.29332 14.30801,4.30433 20.74437,38.95808 22.11875,55.46738 0,0 6.38041,-3.65309 10.62454,-10.23151 5.05076,-7.82869 0.41842,-9.97897 6.2268,2.3954 5.80838,12.37436 3.41299,18.66679 0.63507,25.48532 -2.77792,6.81853 9.1205,8.15036 12.3459,0.58737 9.16535,-21.49112 3.43311,-23.79025 5.52738,24.26904 0.36281,8.32586 -14.46453,19.70976 -19.34518,19.70976 z"
         style="fill:#ffd71d;fill-opacity:1;stroke:#c85e00;stroke-width:10;stroke-linecap:square;stroke-linejoin:miter;stroke-miterlimit:4;stroke-opacity:1;stroke-dasharray:none" />
      <path
         sodipodi:nodetypes="csccccsccssssssc"
         inkscape:connector-curvature="0"
         id="path2987-8"
         d="m 415.89546,505.18158 c 0,0 -7.21244,-2.65418 -4.50056,-7.55864 2.71188,-4.90446 1.61559,-6.11615 1.61559,-6.11615 -0.45931,-1.26308 2.42894,3.15991 2.30798,4.96216 3.83259,-2.41434 -1.50234,-6.17953 3.34657,-12.0592 1.03429,3.97029 0.0983,3.43904 1.72858,5.50395 0,0 0.17329,-2.59788 1.69757,-6.29807 0.70625,-1.71443 1.2815,-4.50995 0.49742,-5.32202 3.26907,0.98344 4.73964,8.90108 5.05366,12.6731 0,0 1.45778,-0.83466 2.42748,-2.33768 1.15399,-1.78869 0.0956,-2.27998 1.42269,0.54729 1.32708,2.82728 0.77979,4.26496 0.1451,5.82285 -0.6347,1.55789 2.08383,1.86218 2.82077,0.1342 2.09408,-4.91026 0.78439,-5.43556 1.26288,5.54495 0.0829,1.90228 -3.30483,4.50326 -4.41995,4.50326 z"
         style="fill:#d20000;fill-opacity:1;stroke:none" />
    </g>
  </g>
</svg>
